<svg width="78" height="78" viewBox="0 0 78 78" fill="none" xmlns="http://www.w3.org/2000/svg">
<path d="M78 5.73529V72.2647C78 73.7858 77.3958 75.2446 76.3202 76.3202C75.2446 77.3958 73.7858 78 72.2647 78H5.73529C4.2142 78 2.75541 77.3958 1.67983 76.3202C0.604252 75.2446 0 73.7858 0 72.2647L0 5.73529C0 4.2142 0.604252 2.75541 1.67983 1.67983C2.75541 0.604252 4.2142 0 5.73529 0L72.2647 0C73.7858 0 75.2446 0.604252 76.3202 1.67983C77.3958 2.75541 78 4.2142 78 5.73529V5.73529ZM22.9412 29.8235H11.4706V66.5294H22.9412V29.8235ZM23.9735 17.2059C23.9796 16.3382 23.8147 15.4779 23.4882 14.674C23.1617 13.87 22.6801 13.1383 22.0709 12.5205C21.4616 11.9027 20.7366 11.411 19.9373 11.0734C19.138 10.7358 18.28 10.5589 17.4124 10.5529H17.2059C15.4414 10.5529 13.7492 11.2539 12.5015 12.5015C11.2539 13.7492 10.5529 15.4414 10.5529 17.2059C10.5529 18.9704 11.2539 20.6626 12.5015 21.9102C13.7492 23.1579 15.4414 23.8588 17.2059 23.8588V23.8588C18.0736 23.8802 18.937 23.7303 19.7468 23.4179C20.5566 23.1054 21.2969 22.6365 21.9254 22.0378C22.5539 21.4391 23.0582 20.7225 23.4097 19.9289C23.7611 19.1352 23.9527 18.2801 23.9735 17.4124V17.2059ZM66.5294 44.2306C66.5294 33.1959 59.5094 28.9059 52.5353 28.9059C50.2518 28.7915 47.9783 29.2779 45.9414 30.3164C43.9046 31.355 42.1757 32.9094 40.9271 34.8247H40.6059V29.8235H29.8235V66.5294H41.2941V47.0065C41.1283 45.007 41.7581 43.0228 43.0468 41.4851C44.3354 39.9473 46.1788 38.98 48.1765 38.7935H48.6124C52.26 38.7935 54.9671 41.0876 54.9671 46.8688V66.5294H66.4376L66.5294 44.2306Z" fill="#5587df"/>
</svg>
