<?xml version="1.0" encoding="UTF-8"?>
<svg id="Layer_1" data-name="Layer 1" xmlns="http://www.w3.org/2000/svg" viewBox="0 0 166.89 136.25">
  <defs>
    <style>
      .cls-1 {
        font-family: PlayfairDisplayRoman-SemiBold, 'Playfair Display';
        font-size: 24px;
        font-variation-settings: 'wght' 600;
        font-weight: 600;
      }

      .cls-2 {
        letter-spacing: 0em;
      }

      .cls-3 {
        letter-spacing: -.02em;
      }

      .cls-4 {
        letter-spacing: 0em;
      }

      .cls-5 {
        fill: #ff4815;
      }
    </style>
  </defs>
  <path class="cls-5" d="M77.82,61.46c-.87-3.27-2.62-5.9-5.25-9.79-2.61-3.84-5.26-7.72-7.91-11.58-5.38-7.63-10.14-15.11-15.92-21.34-7.03-6.78-15.57-12.9-24.52-16.97C6.43-4.89-2.6,8.13.65,24.97c2.04,14.96,9.94,27.6,17.64,40.41,4.15,7.27,1.91,13.26-1.16,20.48-3.76,10.01-2.64,22.1,2.69,31.57,6.79,11.96,21.77,17.63,34.36,11.62,7.8-3.79,12.58-11.08,16.34-18.9,5.6-11.09,8.18-21.93,8.2-34.33.07-5.12.21-9.83-.88-14.22l-.04-.15Z"/>
  <path class="cls-5" d="M81.9,60.91c1.52-2.85,3.67-5.37,5.86-7.77,6.4-6.8,13.28-13.95,20.48-19.99,10.91-8.71,30.27-21.67,44.59-20.73,9.71.64,14.85,9.16,13.97,18.34-1.72,16.17-13.22,31.26-24.33,42.79-8.76,8.5-7.06,12.17-4.31,23,2.12,10.72-1.47,22.88-8.96,30.93-8.42,9.34-23.95,12.11-34.17,3.99-6.61-5.27-10.62-13.49-13.25-21.55-2.73-7.83-3.51-16.15-3.17-24.54.2-4.96.56-10.46.87-14.73.26-3.34.78-6.62,2.36-9.58l.08-.15Z"/>
  <path d="M77.54,93.59c-.25-.61-.31-2.35-.11-3.99.34-2.59.44-5.14.52-8.69.11-8.15.58-16.35.8-24.55-1.04-12.52-5.74-23.53-10.75-34.7-1.29-2.96-3.58-5.65-5.86-8.53-1.25-1.64-3.8-4.33-3.3-6.2.25-.79,1.32-.84,2.47-.41,2.7,1.19,4.52,4.43,6.25,6.6,1.96,2.65,3.92,6.02,5.37,9.28,3.31,8.06,5.43,16.55,7.13,25.27.26,1.11.28,3.53.92,3.92.58-.03,1.14-2.21,1.44-3.06,1.66-5.11,3.27-10.11,5.75-14.75,1.74-3.32,4.17-6.62,6.44-9.64,2.54-3.29,5.3-6.76,8.31-9.94,1.43-1.5,3.12-3.36,4.97-4.19,2.66-1.07,1.22,1.77.02,3.34-2.58,3.02-5.45,6-7.73,8.87-3.24,3.85-5.94,8.09-8.53,12.4-3.49,5.43-5.23,12.32-7.14,18.14-1.07,3.65-2.94,6.85-3.75,10.55-1.17,8.5-1.28,17.59-1.93,26.01-.05,1.09-.54,4.47-1.18,4.45-.03-.02-.06-.06-.09-.11l-.03-.06Z"/>
  <text class="cls-1" transform="translate(17.35 42.88)"><tspan class="cls-3" x="0" y="0">A</tspan><tspan class="cls-4" x="15.24" y="0">L</tspan><tspan class="cls-2" x="29.47" y="0"> </tspan></text>
  <text class="cls-1" transform="translate(97.69 109.89) scale(1.18 1)"><tspan x="0" y="0">JE</tspan></text>
</svg>