<svg width="78" height="78" viewBox="0 0 78 78" fill="none" xmlns="http://www.w3.org/2000/svg">
<path d="M77.9698 27.3V70.2C77.9698 74.5079 75.2846 78 71.9721 78H5.99768C2.68516 78 0 74.5079 0 70.2V27.3C0 25.1464 1.34288 23.4 2.99884 23.4C3.41388 23.2814 3.84331 23.2814 4.25835 23.4L38.9849 54.6L73.7714 23.4C74.1673 23.2924 74.5751 23.2924 74.9709 23.4C76.6269 23.4 77.9698 25.1464 77.9698 27.3ZM1.49942 7.176L1.97923 7.8L38.9849 39L76.1105 7.8H76.4704C77.5475 7.03482 78.1449 5.4795 77.9698 3.9C77.9698 1.74642 76.6269 0 74.9709 0H2.99884C1.34288 0 0 1.74642 0 3.9C0.015594 5.2611 0.586573 6.5091 1.49942 7.176Z" fill="#5587df"/>
</svg>
