<svg width="78" height="78" viewBox="0 0 78 78" fill="none" xmlns="http://www.w3.org/2000/svg">
<path d="M0.0229549 9.91235C-0.370515 4.33814 4.34971 0 9.92634 0H21.8636C24.7262 0 27.3081 1.72478 28.4091 4.37264L33.4009 16.3777C34.6169 19.3021 33.7539 22.68 31.2851 24.6591L28.1734 27.1536C26.7847 28.2668 26.3126 30.1864 27.136 31.7642C31.3675 39.8735 37.621 46.7559 45.2259 51.7393C46.8313 52.7914 48.9516 52.3729 50.1492 50.8728L53.3917 46.8113C55.3668 44.3374 58.7376 43.4727 61.656 44.6912L73.6364 49.6933C76.2788 50.7965 78 53.3837 78 56.2522V68.2492C78 73.8373 73.5107 78.3717 67.948 77.9759C32.3784 75.4454 2.54462 45.6363 0.0229549 9.91235Z" fill="#5587df"/>
</svg>
